<svg width="20" height="20" viewBox="0 0 20 20" fill="none" xmlns="http://www.w3.org/2000/svg">
<path d="M4.75596 3.57741C4.43053 3.25198 3.90289 3.25198 3.57745 3.57741C3.25201 3.90285 3.25201 4.43049 3.57745 4.75592L8.82159 10.0001L3.57745 15.2442C3.25202 15.5696 3.25201 16.0973 3.57745 16.4227C3.90289 16.7482 4.43053 16.7482 4.75596 16.4227L10.0001 11.1786L15.2441 16.4226C15.5696 16.748 16.0972 16.748 16.4226 16.4226C16.7481 16.0972 16.7481 15.5695 16.4226 15.2441L11.1786 10.0001L16.4226 4.75605C16.7481 4.43061 16.7481 3.90298 16.4226 3.57754C16.0972 3.2521 15.5696 3.2521 15.2441 3.57754L10.0001 8.82155L4.75596 3.57741Z" fill="#1E1E1E"/>
</svg>
