<svg width="55" height="35" viewBox="0 0 55 35" fill="none" xmlns="http://www.w3.org/2000/svg">
<rect width="55" height="35" rx="3" fill="#F6F6F6"/>
<path d="M13.3689 15.104C12.9902 15.104 12.6342 15.0293 12.3009 14.88C11.9675 14.728 11.6742 14.5187 11.4209 14.252C11.1702 13.9853 10.9729 13.6773 10.8289 13.328C10.6875 12.976 10.6169 12.6 10.6169 12.2C10.6169 11.7973 10.6875 11.4213 10.8289 11.072C10.9729 10.72 11.1702 10.412 11.4209 10.148C11.6742 9.88133 11.9675 9.67333 12.3009 9.524C12.6342 9.372 12.9902 9.296 13.3689 9.296C13.8222 9.296 14.2395 9.40133 14.6209 9.612C15.0022 9.82 15.3182 10.0987 15.5689 10.448L14.6969 10.916C14.5395 10.7213 14.3435 10.5653 14.1089 10.448C13.8769 10.3307 13.6302 10.272 13.3689 10.272C13.1235 10.272 12.8929 10.3227 12.6769 10.424C12.4609 10.5227 12.2715 10.6613 12.1089 10.84C11.9462 11.016 11.8195 11.2213 11.7289 11.456C11.6382 11.688 11.5929 11.936 11.5929 12.2C11.5929 12.4667 11.6382 12.716 11.7289 12.948C11.8222 13.18 11.9502 13.3853 12.1129 13.564C12.2755 13.74 12.4635 13.8787 12.6769 13.98C12.8929 14.0787 13.1235 14.128 13.3689 14.128C13.6355 14.128 13.8835 14.0693 14.1129 13.952C14.3449 13.832 14.5395 13.6747 14.6969 13.48L15.5689 13.952C15.3182 14.2987 15.0022 14.5773 14.6209 14.788C14.2395 14.9987 13.8222 15.104 13.3689 15.104ZM18.0707 9.4H19.1948L21.2308 15H20.1948L19.8348 14.008H17.4348L17.0748 15H16.0388L18.0707 9.4ZM17.7908 13.032H19.4748L18.6308 10.724L17.7908 13.032ZM23.5819 15.104C23.2726 15.104 22.9753 15.056 22.6899 14.96C22.4073 14.8613 22.1593 14.7213 21.9459 14.54C21.7326 14.356 21.5793 14.136 21.4859 13.88L22.4019 13.544C22.4393 13.6507 22.5153 13.748 22.6299 13.836C22.7446 13.924 22.8846 13.9947 23.0499 14.048C23.2153 14.1013 23.3926 14.128 23.5819 14.128C23.7766 14.128 23.9579 14.0987 24.1259 14.04C24.2966 13.9787 24.4339 13.8947 24.5379 13.788C24.6419 13.6787 24.6939 13.552 24.6939 13.408C24.6939 13.2613 24.6393 13.1413 24.5299 13.048C24.4206 12.952 24.2806 12.876 24.1099 12.82C23.9393 12.764 23.7633 12.7213 23.5819 12.692C23.1846 12.6307 22.8286 12.536 22.5139 12.408C22.1993 12.28 21.9499 12.1027 21.7659 11.876C21.5846 11.6493 21.4939 11.356 21.4939 10.996C21.4939 10.6573 21.5913 10.3613 21.7859 10.108C21.9806 9.85467 22.2366 9.65733 22.5539 9.516C22.8713 9.37467 23.2139 9.304 23.5819 9.304C23.8886 9.304 24.1846 9.352 24.4699 9.448C24.7553 9.544 25.0046 9.684 25.2179 9.868C25.4339 10.052 25.5886 10.2733 25.6819 10.532L24.7619 10.864C24.7246 10.7573 24.6486 10.66 24.5339 10.572C24.4193 10.484 24.2793 10.4147 24.1139 10.364C23.9486 10.3107 23.7713 10.284 23.5819 10.284C23.3926 10.2813 23.2126 10.312 23.0419 10.376C22.8739 10.4373 22.7366 10.5213 22.6299 10.628C22.5233 10.7347 22.4699 10.8573 22.4699 10.996C22.4699 11.1747 22.5193 11.3093 22.6179 11.4C22.7193 11.4907 22.8539 11.5573 23.0219 11.6C23.1899 11.64 23.3766 11.6773 23.5819 11.712C23.9553 11.7707 24.3006 11.8693 24.6179 12.008C24.9353 12.1467 25.1899 12.332 25.3819 12.564C25.5739 12.7933 25.6699 13.0747 25.6699 13.408C25.6699 13.7467 25.5739 14.044 25.3819 14.3C25.1899 14.5533 24.9353 14.7507 24.6179 14.892C24.3006 15.0333 23.9553 15.104 23.5819 15.104ZM29.8776 9.4H30.8536V15H29.8776V12.488H27.5576V15H26.5816V9.4H27.5576V11.512H29.8776V9.4ZM36.3378 15.104C35.9591 15.104 35.6031 15.0293 35.2698 14.88C34.9365 14.728 34.6431 14.5187 34.3898 14.252C34.1365 13.9853 33.9378 13.6773 33.7938 13.328C33.6498 12.976 33.5778 12.6 33.5778 12.2C33.5778 11.8 33.6498 11.4253 33.7938 11.076C33.9378 10.724 34.1365 10.4147 34.3898 10.148C34.6431 9.88133 34.9365 9.67333 35.2698 9.524C35.6031 9.372 35.9591 9.296 36.3378 9.296C36.7191 9.296 37.0765 9.372 37.4098 9.524C37.7431 9.67333 38.0365 9.88133 38.2898 10.148C38.5431 10.4147 38.7405 10.724 38.8818 11.076C39.0258 11.4253 39.0978 11.8 39.0978 12.2C39.0978 12.6 39.0258 12.976 38.8818 13.328C38.7405 13.6773 38.5431 13.9853 38.2898 14.252C38.0365 14.5187 37.7431 14.728 37.4098 14.88C37.0765 15.0293 36.7191 15.104 36.3378 15.104ZM36.3378 14.128C36.5831 14.128 36.8138 14.0773 37.0298 13.976C37.2458 13.8747 37.4351 13.736 37.5978 13.56C37.7631 13.3813 37.8911 13.176 37.9818 12.944C38.0751 12.712 38.1218 12.464 38.1218 12.2C38.1218 11.936 38.0751 11.688 37.9818 11.456C37.8885 11.2213 37.7591 11.016 37.5938 10.84C37.4311 10.664 37.2418 10.5253 37.0258 10.424C36.8125 10.3227 36.5831 10.272 36.3378 10.272C36.0925 10.272 35.8618 10.3227 35.6458 10.424C35.4298 10.5253 35.2391 10.6653 35.0738 10.844C34.9111 11.02 34.7831 11.224 34.6898 11.456C34.5991 11.688 34.5538 11.936 34.5538 12.2C34.5538 12.4667 34.6005 12.716 34.6938 12.948C34.7871 13.18 34.9151 13.3853 35.0778 13.564C35.2431 13.74 35.4325 13.8787 35.6458 13.98C35.8618 14.0787 36.0925 14.128 36.3378 14.128ZM39.8238 15V9.4H40.8798L43.2438 13.236V9.4H44.2198V15H43.1678L40.7998 11.164V15H39.8238ZM9.94094 25V19.4H11.7969C12.1836 19.4 12.5449 19.4733 12.8809 19.62C13.2196 19.764 13.5169 19.9653 13.7729 20.224C14.0316 20.48 14.2329 20.7773 14.3769 21.116C14.5236 21.452 14.5969 21.8133 14.5969 22.2C14.5969 22.5867 14.5236 22.9493 14.3769 23.288C14.2329 23.624 14.0316 23.9213 13.7729 24.18C13.5169 24.436 13.2196 24.6373 12.8809 24.784C12.5449 24.928 12.1836 25 11.7969 25H9.94094ZM10.9169 24.024H11.7969C12.0449 24.024 12.2783 23.9773 12.4969 23.884C12.7183 23.788 12.9129 23.6573 13.0809 23.492C13.2489 23.324 13.3809 23.1307 13.4769 22.912C13.5729 22.6907 13.6209 22.4533 13.6209 22.2C13.6209 21.9467 13.5729 21.7107 13.4769 21.492C13.3809 21.2733 13.2489 21.08 13.0809 20.912C12.9129 20.744 12.7196 20.6133 12.5009 20.52C12.2823 20.424 12.0476 20.376 11.7969 20.376H10.9169V24.024ZM15.2456 25V19.4H18.7576V20.376H16.2216V21.512H18.2336V22.488H16.2216V24.024H18.7576V25H15.2456ZM19.6597 25V19.4H20.6357V24.024H22.9677V25H19.6597ZM23.9672 25V19.4H24.9432V25H23.9672ZM27.9419 25L25.9099 19.4H26.9459L28.5659 23.86L30.1899 19.4H31.2219L29.1899 25H27.9419ZM31.9409 25V19.4H35.4529V20.376H32.9169V21.512H34.9289V22.488H32.9169V24.024H35.4529V25H31.9409ZM36.355 25V19.4H38.503C38.807 19.4 39.0817 19.476 39.327 19.628C39.5723 19.78 39.767 19.984 39.911 20.24C40.055 20.4933 40.127 20.7747 40.127 21.084C40.127 21.3373 40.0803 21.5707 39.987 21.784C39.8963 21.9947 39.7683 22.1773 39.603 22.332C39.4403 22.4867 39.2523 22.604 39.039 22.684L40.379 25H39.255L37.959 22.772H37.331V25H36.355ZM37.331 21.796H38.391C38.5297 21.796 38.6563 21.7613 38.771 21.692C38.8857 21.6227 38.9777 21.5293 39.047 21.412C39.1163 21.2947 39.151 21.164 39.151 21.02C39.151 20.8733 39.1163 20.7413 39.047 20.624C38.9777 20.5067 38.8857 20.4133 38.771 20.344C38.6563 20.2747 38.5297 20.24 38.391 20.24H37.331V21.796ZM44.1464 19.4H45.2984L43.3744 22.476V25H42.3984V22.476L40.4744 19.4H41.6264L42.8864 21.412L44.1464 19.4Z" fill="#111827"/>
</svg>
