<svg width="90" height="35" viewBox="0 0 90 35" fill="none" xmlns="http://www.w3.org/2000/svg">
<rect width="90" height="35" rx="3" fill="#EAF7EF"/>
<g clip-path="url(#clip0_419_1870)">
<path d="M9.19092 16.9259C9.47396 14.8074 10.8352 13.4461 12.9654 13.3265C14.2434 13.255 15.5507 13.7131 16.2729 14.9154C16.9076 15.9731 17.0185 18.0829 14.2887 18.6417C11.448 19.2253 9.64467 17.8625 9.19092 16.9259ZM14.5352 15.7266C14.2609 15.3064 13.7313 15.0846 13.0018 15.1269C11.8186 15.194 11.1256 15.9761 10.9592 16.7085C11.3021 17.082 12.8807 17.438 14.0319 17.0426C14.6228 16.8412 14.8533 16.2212 14.5294 15.7295" fill="#312D3C"/>
<path d="M15.4853 18.8024C15.0826 19.7522 13.9737 20.3153 12.7759 20.2614C10.9142 20.1782 9.53252 19.1263 9.02041 17.7314C8.8322 19.6967 9.98773 21.3994 12.0478 21.8663C14.2787 22.3682 16.4248 21.2549 17.0347 19.7259L15.4853 18.8024Z" fill="#28B35F"/>
<path d="M71.6454 19.1684C71.6454 20.6435 70.3323 21.8778 67.852 21.8778C65.7422 21.8778 64.2978 20.7237 64.168 19.1684L65.7422 18.4156C65.8721 19.7141 67.0247 20.1795 68.0956 20.1795C69.0688 20.1795 69.7501 19.7783 69.7501 19.2166C69.7501 17.6934 64.5254 19.0575 64.5254 15.8186C64.5254 14.4558 65.856 13.4287 68.0635 13.4287C70.271 13.4287 71.5184 14.4719 71.5184 15.6581L70.1236 16.3949C70.0259 15.4655 68.9564 15.1124 68.0139 15.1124C67.1049 15.1124 66.4893 15.4173 66.4893 15.8507C66.4893 17.0179 71.6497 16.1425 71.6497 19.1684H71.6454ZM28.5785 15.8507C28.5785 15.413 29.1957 15.1124 30.1032 15.1124C31.0443 15.1124 32.1152 15.4655 32.2129 16.3949L33.6077 15.6581C33.6077 14.4719 32.3588 13.4287 30.1528 13.4287C27.9468 13.4287 26.6147 14.45 26.6147 15.8186C26.6147 19.0575 31.8394 17.6934 31.8394 19.2166C31.8394 19.7783 31.1595 20.1795 30.1849 20.1795C29.114 20.1795 27.9614 19.7141 27.8315 18.4156L26.2587 19.1684C26.3886 20.7237 27.8315 21.8778 29.9413 21.8778C32.4216 21.8778 33.7347 20.6435 33.7347 19.1684C33.7347 16.1381 28.5742 17.0208 28.5742 15.8507H28.5785ZM23.5216 13.4404H25.4855V21.8778H23.526V20.5647C23.2827 20.9626 22.942 21.2919 22.5361 21.5216C22.1303 21.7514 21.6726 21.8739 21.2062 21.8778C18.8849 21.8778 17.8301 20.0117 17.8301 17.5942C17.8301 15.2408 18.8849 13.4404 21.2062 13.4404C21.6664 13.4386 22.1197 13.5519 22.5248 13.77C22.93 13.9882 23.2742 14.3042 23.526 14.6893L23.5216 13.4404ZM23.4983 17.5942C23.4983 16.1497 22.7994 15.143 21.6643 15.143C20.4796 15.143 19.7983 16.1497 19.7983 17.5942C19.7983 19.0867 20.4796 20.1095 21.6643 20.1095C22.7994 20.1095 23.4983 19.0882 23.4983 17.5942ZM40.0974 17.0339C40.0974 18.1369 39.8858 20.0205 38.0548 20.0205C37.3092 20.0205 36.6935 19.7287 36.6935 18.0246V13.4404H34.7224V18.6724C34.7224 20.715 35.6956 21.8822 37.5777 21.8822C39.0367 21.8822 39.756 21.1308 40.093 20.092V20.4217C40.093 21.9726 39.5911 23.1471 37.9833 23.3747C36.7139 23.5556 35.7948 22.886 35.0974 21.9157L34.0396 23.2288C34.5794 24.1655 36.2383 24.9986 37.8082 24.9986C38.0306 24.9983 38.2525 24.9803 38.472 24.9446C40.856 24.5449 42.0553 22.9108 42.0553 20.5516V13.4404H40.093L40.0974 17.0339ZM61.0705 21.8778H63.0373V13.4404H61.0661L61.0705 21.8778ZM80.1834 13.4404V21.8778H78.2109V20.5647C77.9677 20.9627 77.6271 21.2922 77.2212 21.522C76.8153 21.7518 76.3575 21.8742 75.8911 21.8778C73.5712 21.8778 72.5164 20.0117 72.5164 17.5942C72.5164 15.2408 73.5712 13.4404 75.8911 13.4404C76.3513 13.4382 76.8047 13.5513 77.21 13.7695C77.6152 13.9877 77.9593 14.3039 78.2109 14.6893V13.4404H80.1834ZM78.1875 17.5942C78.1875 16.1497 77.4901 15.143 76.355 15.143C75.1703 15.143 74.4875 16.1497 74.4875 17.5942C74.4875 19.0867 75.1703 20.1095 76.355 20.1095C77.4901 20.1095 78.1875 19.0882 78.1875 17.5942ZM57.7177 13.4404H59.6815V21.8778H57.7148V20.5647C57.4717 20.9627 57.1311 21.2922 56.7251 21.522C56.3192 21.7518 55.8614 21.8742 55.395 21.8778C53.0752 21.8778 52.0203 20.0117 52.0203 17.5942C52.0203 15.2408 53.0752 13.4404 55.395 13.4404C55.8552 13.4382 56.3087 13.5513 56.7139 13.7695C57.1191 13.9877 57.4632 14.3039 57.7148 14.6893L57.7177 13.4404ZM57.6856 17.5942C57.6856 16.1497 56.9882 15.143 55.8531 15.143C54.6684 15.143 53.9856 16.1497 53.9856 17.5942C53.9856 19.0867 54.6684 20.1095 55.8531 20.1095C56.9882 20.1095 57.6856 19.0882 57.6856 17.5942ZM51.1814 17.7313C51.1814 20.0847 50.128 21.8851 47.8067 21.8851C47.3465 21.8873 46.8931 21.7741 46.4878 21.556C46.0826 21.3378 45.7385 21.0216 45.4869 20.6362V25.0015H43.5202V13.4404H45.484V14.7622C45.7271 14.3642 46.0677 14.0347 46.4737 13.8049C46.8796 13.5752 47.3374 13.4527 47.8038 13.4491C50.1251 13.4491 51.1785 15.3152 51.1785 17.7328L51.1814 17.7313ZM49.2161 17.7328C49.2161 16.2402 48.5348 15.2189 47.3501 15.2189C46.2135 15.2189 45.5161 16.2402 45.5161 17.7328C45.5161 19.1772 46.2135 20.1824 47.3501 20.1824C48.5348 20.1824 49.2161 19.1772 49.2161 17.7328Z" fill="#312D3C"/>
<path d="M60.774 11.2664C60.7722 11.0176 60.8443 10.7739 60.9811 10.5661C61.118 10.3583 61.3133 10.1957 61.5426 10.099C61.7718 10.0022 62.0246 9.97565 62.2689 10.0226C62.5132 10.0695 62.7381 10.1879 62.9152 10.3627C63.0922 10.5375 63.2135 10.7609 63.2635 11.0046C63.3136 11.2483 63.2902 11.5014 63.1964 11.7318C63.1026 11.9623 62.9426 12.1597 62.7365 12.2992C62.5305 12.4386 62.2877 12.5139 62.0389 12.5153C61.7063 12.5149 61.3872 12.3838 61.1505 12.1501C60.9138 11.9164 60.7786 11.599 60.774 11.2664Z" fill="#28B35F"/>
</g>
<defs>
<clipPath id="clip0_419_1870">
<rect width="71.1803" height="15" fill="white" transform="translate(9 10)"/>
</clipPath>
</defs>
</svg>
