<svg width="55" height="35" viewBox="0 0 55 35" fill="none" xmlns="http://www.w3.org/2000/svg">
<rect width="55" height="35" rx="3" fill="#FFEFE6"/>
<path d="M18.2207 28.95V27.4439C18.2207 26.8666 17.8819 26.4901 17.301 26.4901C17.0106 26.4901 16.6959 26.5905 16.4781 26.9168C16.3086 26.6407 16.0666 26.4901 15.7036 26.4901C15.4615 26.4901 15.2195 26.5654 15.0259 26.8415V26.5403H14.5176V28.95H15.0259V27.6196C15.0259 27.1929 15.2437 26.9921 15.5825 26.9921C15.9214 26.9921 16.0908 27.218 16.0908 27.6196V28.95H16.5991V27.6196C16.5991 27.1929 16.8411 26.9921 17.1558 26.9921C17.4946 26.9921 17.664 27.218 17.664 27.6196V28.95H18.2207ZM25.7481 26.5403H24.9251V25.8123H24.4169V26.5403H23.957V27.0172H24.4169V28.1217C24.4169 28.6739 24.6347 29.0002 25.2156 29.0002C25.4334 29.0002 25.6754 28.9249 25.8449 28.8245L25.6996 28.3727C25.5544 28.4731 25.385 28.4982 25.264 28.4982C25.0219 28.4982 24.9251 28.3476 24.9251 28.0966V27.0172H25.7481V26.5403ZM30.0563 26.4901C29.7659 26.4901 29.5722 26.6407 29.4512 26.8415V26.5403H28.9429V28.95H29.4512V27.5945C29.4512 27.1929 29.6206 26.967 29.9353 26.967C30.0321 26.967 30.1531 26.9921 30.2499 27.0172L30.3951 26.5152C30.2983 26.4901 30.1531 26.4901 30.0563 26.4901ZM23.5455 26.7411C23.3035 26.5654 22.9646 26.4901 22.6016 26.4901C22.0207 26.4901 21.6334 26.7913 21.6334 27.2682C21.6334 27.6698 21.9239 27.8958 22.4322 27.9711L22.6742 27.9962C22.9404 28.0464 23.0857 28.1217 23.0857 28.2472C23.0857 28.4229 22.892 28.5484 22.5532 28.5484C22.2143 28.5484 21.9481 28.4229 21.7787 28.2974L21.5366 28.699C21.8029 28.8998 22.1659 29.0002 22.529 29.0002C23.2067 29.0002 23.5939 28.6739 23.5939 28.2221C23.5939 27.7954 23.2793 27.5694 22.7952 27.4941L22.5532 27.469C22.3353 27.4439 22.1659 27.3937 22.1659 27.2431C22.1659 27.0674 22.3353 26.967 22.6016 26.967C22.892 26.967 23.1825 27.0925 23.3277 27.1678L23.5455 26.7411ZM37.0511 26.4901C36.7607 26.4901 36.5671 26.6407 36.4461 26.8415V26.5403H35.9378V28.95H36.4461V27.5945C36.4461 27.1929 36.6155 26.967 36.9301 26.967C37.0269 26.967 37.148 26.9921 37.2448 27.0172L37.39 26.5152C37.2932 26.4901 37.148 26.4901 37.0511 26.4901ZM30.5646 27.7451C30.5646 28.4731 31.0486 29.0002 31.799 29.0002C32.1378 29.0002 32.3798 28.9249 32.6219 28.7241L32.3798 28.2974C32.1862 28.448 31.9926 28.5233 31.7748 28.5233C31.3633 28.5233 31.0728 28.2221 31.0728 27.7451C31.0728 27.2933 31.3633 26.9921 31.7748 26.967C31.9926 26.967 32.1862 27.0423 32.3798 27.1929L32.6219 26.7662C32.3798 26.5654 32.1378 26.4901 31.799 26.4901C31.0486 26.4901 30.5646 27.0172 30.5646 27.7451ZM35.2601 27.7451V26.5403H34.7518V26.8415C34.5824 26.6156 34.3403 26.4901 34.0257 26.4901C33.3722 26.4901 32.8639 27.0172 32.8639 27.7451C32.8639 28.4731 33.3722 29.0002 34.0257 29.0002C34.3645 29.0002 34.6066 28.8747 34.7518 28.6488V28.95H35.2601V27.7451ZM33.3964 27.7451C33.3964 27.3184 33.6626 26.967 34.0983 26.967C34.5098 26.967 34.8002 27.2933 34.8002 27.7451C34.8002 28.1719 34.5098 28.5233 34.0983 28.5233C33.6626 28.4982 33.3964 28.1719 33.3964 27.7451ZM27.3213 26.4901C26.6436 26.4901 26.1595 26.9921 26.1595 27.7451C26.1595 28.4982 26.6436 29.0002 27.3455 29.0002C27.6843 29.0002 28.0232 28.8998 28.2894 28.6739L28.0474 28.2974C27.8538 28.448 27.6117 28.5484 27.3697 28.5484C27.055 28.5484 26.7404 28.3978 26.6678 27.9711H28.3862V27.7702C28.4105 26.9921 27.9748 26.4901 27.3213 26.4901ZM27.3213 26.9419C27.6359 26.9419 27.8538 27.1427 27.9022 27.5192H26.692C26.7404 27.1929 26.9582 26.9419 27.3213 26.9419ZM39.9314 27.7451V25.5864H39.4231V26.8415C39.2537 26.6156 39.0116 26.4901 38.697 26.4901C38.0435 26.4901 37.5352 27.0172 37.5352 27.7451C37.5352 28.4731 38.0435 29.0002 38.697 29.0002C39.0358 29.0002 39.2779 28.8747 39.4231 28.6488V28.95H39.9314V27.7451ZM38.0677 27.7451C38.0677 27.3184 38.3339 26.967 38.7696 26.967C39.1811 26.967 39.4715 27.2933 39.4715 27.7451C39.4715 28.1719 39.1811 28.5233 38.7696 28.5233C38.3339 28.4982 38.0677 28.1719 38.0677 27.7451ZM21.0768 27.7451V26.5403H20.5685V26.8415C20.3991 26.6156 20.157 26.4901 19.8424 26.4901C19.1889 26.4901 18.6806 27.0172 18.6806 27.7451C18.6806 28.4731 19.1889 29.0002 19.8424 29.0002C20.1812 29.0002 20.4233 28.8747 20.5685 28.6488V28.95H21.0768V27.7451ZM19.1889 27.7451C19.1889 27.3184 19.4551 26.967 19.8908 26.967C20.3022 26.967 20.5927 27.2933 20.5927 27.7451C20.5927 28.1719 20.3022 28.5233 19.8908 28.5233C19.4551 28.4982 19.1889 28.1719 19.1889 27.7451Z" fill="black"/>
<path d="M30.8284 8.89648H23.2422V22.5517H30.8284V8.89648Z" fill="#FF5F00"/>
<path d="M23.7308 15.7241C23.7308 12.9373 25.033 10.4654 27.0345 8.866C25.5635 7.70278 23.7067 7 21.6811 7C16.8824 7 13 10.9016 13 15.7241C13 20.5466 16.8824 24.4483 21.6811 24.4483C23.7067 24.4483 25.5635 23.7455 27.0345 22.5823C25.033 21.0071 23.7308 18.511 23.7308 15.7241Z" fill="#EB001B"/>
<path d="M41.0692 15.7241C41.0692 20.5466 37.1868 24.4483 32.388 24.4483C30.3624 24.4483 28.5056 23.7455 27.0347 22.5823C29.0603 20.9829 30.3383 18.511 30.3383 15.7241C30.3383 12.9373 29.0361 10.4654 27.0347 8.866C28.5056 7.70278 30.3624 7 32.388 7C37.1868 7 41.0692 10.9259 41.0692 15.7241Z" fill="#F79E1B"/>
</svg>
