<svg width="70" height="70" viewBox="0 0 70 70" fill="none" xmlns="http://www.w3.org/2000/svg">
<circle cx="35" cy="35" r="35" fill=""/>
<path d="M19 28.1136C19 26.7574 19.5388 25.4567 20.4977 24.4977C21.4567 23.5388 22.7574 23 24.1136 23H45.7045C47.0608 23 48.3614 23.5388 49.3204 24.4977C50.2794 25.4567 50.8182 26.7574 50.8182 28.1136V42.8864C50.8182 44.2426 50.2794 45.5433 49.3204 46.5022C48.3614 47.4612 47.0608 48 45.7045 48H24.1136C22.7574 48 21.4567 47.4612 20.4977 46.5022C19.5388 45.5433 19 44.2426 19 42.8864V28.1136ZM24.1136 25.2727C23.3602 25.2727 22.6376 25.572 22.1048 26.1048C21.572 26.6376 21.2727 27.3602 21.2727 28.1136V29.8182H48.5455V28.1136C48.5455 27.3602 48.2461 26.6376 47.7134 26.1048C47.1806 25.572 46.458 25.2727 45.7045 25.2727H24.1136ZM21.2727 42.8864C21.2727 43.6398 21.572 44.3624 22.1048 44.8952C22.6376 45.428 23.3602 45.7273 24.1136 45.7273H45.7045C46.458 45.7273 47.1806 45.428 47.7134 44.8952C48.2461 44.3624 48.5455 43.6398 48.5455 42.8864V32.0909H21.2727V42.8864ZM40.5909 38.9091H44C44.3014 38.9091 44.5904 39.0288 44.8035 39.2419C45.0166 39.455 45.1364 39.7441 45.1364 40.0455C45.1364 40.3468 45.0166 40.6359 44.8035 40.849C44.5904 41.0621 44.3014 41.1818 44 41.1818H40.5909C40.2895 41.1818 40.0005 41.0621 39.7874 40.849C39.5743 40.6359 39.4545 40.3468 39.4545 40.0455C39.4545 39.7441 39.5743 39.455 39.7874 39.2419C40.0005 39.0288 40.2895 38.9091 40.5909 38.9091Z" fill="#FCC85D" stroke="#FCC85D" stroke-width="0.3"/>
</svg>
