<svg width="70" height="70" viewBox="0 0 70 70" fill="none" xmlns="http://www.w3.org/2000/svg">
<circle cx="35" cy="35" r="35" fill=""/>
<path d="M48.0186 33.3588C47.6209 30.4971 46.2933 27.8456 44.2404 25.8126C42.1875 23.7797 39.5231 22.4781 36.6577 22.1083C33.7923 21.7386 30.8847 22.3212 28.383 23.7665C25.8813 25.2118 23.9242 27.4395 22.8131 30.1065M22 23.6019V30.1065H28.5046M22 36.6112C22.3977 39.4729 23.7252 42.1244 25.7782 44.1574C27.8311 46.1903 30.4955 47.4919 33.3609 47.8617C36.2263 48.2314 39.1339 47.6488 41.6356 46.2035C44.1373 44.7582 46.0944 42.5305 47.2055 39.8635M48.0186 46.3681V39.8635H41.5139" stroke="#FCC85D" stroke-width="2.4" stroke-linecap="round" stroke-linejoin="round"/>
</svg>
 