<svg width="26" height="26" viewBox="0 0 26 26" fill="none" xmlns="http://www.w3.org/2000/svg">
<path d="M15.1624 2.38706L17.3624 6.78706C17.6624 7.39956 18.4624 7.98706 19.1374 8.09956L23.1249 8.76206C25.6749 9.18706 26.2749 11.0371 24.4374 12.8621L21.3374 15.9621C20.8124 16.4871 20.5249 17.4996 20.6874 18.2246L21.5749 22.0621C22.2749 25.0996 20.6624 26.2746 17.9749 24.6871L14.2374 22.4746C13.5624 22.0746 12.4499 22.0746 11.7624 22.4746L8.02489 24.6871C5.34989 26.2746 3.72489 25.0871 4.42489 22.0621L5.31239 18.2246C5.47489 17.4996 5.18739 16.4871 4.66239 15.9621L1.56239 12.8621C-0.262614 11.0371 0.324887 9.18706 2.87489 8.76206L6.86239 8.09956C7.52489 7.98706 8.32489 7.39956 8.62489 6.78706L10.8249 2.38706C12.0249 -0.000439235 13.9749 -0.000439235 15.1624 2.38706Z" fill="url(#paint0_linear_614_2115)"/>
<defs>
<linearGradient id="paint0_linear_614_2115" x1="3.35714" y1="2.28519" x2="19.4286" y2="25.8566" gradientUnits="userSpaceOnUse">
<stop stop-color="#FFB547"/>
<stop offset="1" stop-color="#FFA41C"/>
</linearGradient>
</defs>
</svg>
