<svg width="55" height="35" viewBox="0 0 55 35" fill="none" xmlns="http://www.w3.org/2000/svg">
<rect width="55" height="35" rx="3" fill="#0066B3" fill-opacity="0.09"/>
<path d="M35.8937 16.8975C35.8937 16.8975 36.2313 18.5585 36.3073 18.9064H34.8234L35.5346 16.9642C35.5258 16.9779 35.681 16.5577 35.7697 16.2989L35.8937 16.8975ZM40.6 10.143V25.857C40.5998 26.4253 40.3749 26.9702 39.9749 27.3721C39.5748 27.7739 39.0322 27.9998 38.4665 28H17.1335C16.5677 27.9998 16.0252 27.7739 15.6251 27.3721C15.2251 26.9702 15.0002 26.4253 15 25.857V10.143C15.0002 9.57473 15.2251 9.02976 15.6251 8.62791C16.0252 8.22606 16.5677 8.00021 17.1335 8H38.4665C39.0322 8.00021 39.5748 8.22606 39.9749 8.62791C40.3749 9.02976 40.5998 9.57473 40.6 10.143ZM21.7782 21.3572L24.5869 14.4291H22.6982L20.9518 19.1611L20.7606 18.2017L20.1382 15.0141C20.0358 14.5721 19.7207 14.4468 19.3295 14.4291H16.4544L16.4232 14.5673C17.0816 14.7295 17.7132 14.9867 18.2983 15.3307L19.8894 21.3572H21.7782ZM25.9741 21.366L27.094 14.4291H25.3077L24.1925 21.366H25.9741ZM32.1915 19.0984C32.2003 18.3086 31.7203 17.7059 30.6939 17.2101C30.0675 16.8927 29.6851 16.679 29.6851 16.3528C29.6939 16.0579 30.0099 15.7541 30.7115 15.7541C31.1685 15.7412 31.6225 15.8312 32.0403 16.0177L32.2003 16.0932L32.4451 14.593C31.9344 14.3966 31.3919 14.2967 30.8451 14.2981C29.0804 14.2981 27.8404 15.2447 27.8316 16.5922C27.818 17.5878 28.7204 18.1414 29.3963 18.4757C30.0851 18.8148 30.3211 19.0382 30.3211 19.3371C30.3123 19.8015 29.7611 20.0153 29.25 20.0153C28.5388 20.0153 28.1564 19.9036 27.574 19.6448L27.3388 19.5331L27.09 21.0912C27.5076 21.2832 28.2812 21.4528 29.0812 21.4616C30.9563 21.4656 32.1787 20.5327 32.1923 19.096L32.1915 19.0984ZM38.4665 21.366L37.0265 14.4291H35.6442C35.2178 14.4291 34.893 14.5544 34.7106 15.0052L32.0571 21.3668H33.9322C33.9322 21.3668 34.2386 20.5094 34.3058 20.327H36.5993C36.6529 20.5729 36.8129 21.3668 36.8129 21.3668L38.4665 21.366Z" fill="#0066B3"/>
</svg>
