<svg width="20" height="18" viewBox="0 0 20 18" fill="none" xmlns="http://www.w3.org/2000/svg">
<path d="M10 14.5C11.25 14.5 12.3127 14.0627 13.188 13.188C14.0627 12.3127 14.5 11.25 14.5 10C14.5 8.75 14.0627 7.68733 13.188 6.812C12.3127 5.93733 11.25 5.5 10 5.5C8.75 5.5 7.68733 5.93733 6.812 6.812C5.93733 7.68733 5.5 8.75 5.5 10C5.5 11.25 5.93733 12.3127 6.812 13.188C7.68733 14.0627 8.75 14.5 10 14.5ZM2 18C1.45 18 0.979333 17.8043 0.588 17.413C0.196 17.021 0 16.55 0 16V4C0 3.45 0.196 2.97933 0.588 2.588C0.979333 2.196 1.45 2 2 2H5.15L6.4 0.65C6.58333 0.433333 6.804 0.270667 7.062 0.162C7.32067 0.0539999 7.59167 0 7.875 0H12.125C12.4083 0 12.6793 0.0539999 12.938 0.162C13.196 0.270667 13.4167 0.433333 13.6 0.65L14.85 2H18C18.55 2 19.021 2.196 19.413 2.588C19.8043 2.97933 20 3.45 20 4V16C20 16.55 19.8043 17.021 19.413 17.413C19.021 17.8043 18.55 18 18 18H2Z" fill="black"/>
</svg>
