<svg width="26" height="26" viewBox="0 0 26 26" fill="none" xmlns="http://www.w3.org/2000/svg">
<path d="M15.0569 2.38706L17.2569 6.78706C17.5569 7.39956 18.3569 7.98706 19.0319 8.09956L23.0194 8.76206C25.5694 9.18706 26.1694 11.0371 24.3319 12.8621L21.2319 15.9621C20.7069 16.4871 20.4194 17.4996 20.5819 18.2246L21.4694 22.0621C22.1694 25.0996 20.5569 26.2746 17.8694 24.6871L14.1319 22.4746C13.4569 22.0746 12.3444 22.0746 11.6569 22.4746L7.91942 24.6871C5.24442 26.2746 3.61942 25.0871 4.31942 22.0621L5.20692 18.2246C5.36942 17.4996 5.08192 16.4871 4.55692 15.9621L1.45692 12.8621C-0.368083 11.0371 0.219418 9.18706 2.76942 8.76206L6.75692 8.09956C7.41942 7.98706 8.21942 7.39956 8.51942 6.78706L10.7194 2.38706C11.9194 -0.000439227 13.8694 -0.000439227 15.0569 2.38706Z" fill="#C4C4C4"/>
</svg>
