<svg width="327" height="102" viewBox="0 0 327 102" fill="none" xmlns="http://www.w3.org/2000/svg">
<g clip-path="url(#clip0_109_5954)">
<rect width="327" height="102" transform="matrix(-1 0 0 1 327 0)" fill="#F7F0EA"/>
<path d="M221.186 134.4C232.914 108.483 234.522 58.0989 147.124 63.8973C59.7272 69.6957 67.0751 56.5483 52.711 33.0912C33.505 1.72729 -11.9936 -13.164 -47.8381 37.5718" stroke="white" stroke-width="0.527125" stroke-linecap="round" stroke-dasharray="35.32 43.22"/>
<path d="M370.832 141.942C364.726 108.382 333.274 41.8146 256.314 44.0285C160.114 46.7959 128.882 -39.7844 207.95 -61.3965" stroke="white" stroke-width="0.527125" stroke-linecap="round" stroke-dasharray="35.32 43.22"/>
<path d="M346.848 136.803C335.075 111.325 252.097 68.8778 100.944 136.803C31.6725 167.932 -17.5331 141.445 -49.8163 92.1289" stroke="white" stroke-width="0.527125" stroke-miterlimit="1.00382" stroke-linecap="round" stroke-dasharray="35.32 43.22"/>
<path d="M279.108 139.043C283.501 87.6479 271.333 -29.7692 133.885 20.0441C86.1904 37.3294 38.8269 -16.635 70.4984 -52.5674" stroke="white" stroke-width="0.527125" stroke-miterlimit="1.00382" stroke-linecap="round" stroke-dasharray="35.32 45.86"/>
<path d="M-33.9991 92.5241C-6.32508 46.5764 62.7546 -42.6307 117.681 -31.8773C186.339 -18.4356 387.437 -41.8927 379.399 43.238" stroke="white" stroke-width="0.527125" stroke-miterlimit="1.00382" stroke-linecap="round" stroke-dasharray="35.32 45.86"/>
<path d="M369.383 49.168C360.334 20.9668 264.88 -50.195 201.625 37.7031C111.248 163.29 65.3635 120.725 15.5502 79.346C-24.3004 46.2425 -22.886 12.2693 -22.5346 8.7112" stroke="white" stroke-width="0.527125" stroke-linecap="round" stroke-dasharray="35.32 43.22"/>
<path d="M357.652 65.1145C323.433 22.4613 192.583 -43.3151 40.4549 -59.0234" stroke="white" stroke-width="0.527125" stroke-miterlimit="1.00382" stroke-linecap="round" stroke-dasharray="35.32 43.22"/>
<circle r="7.77509" transform="matrix(-1 0 0 1 30.7072 12.533)" stroke="white" stroke-width="0.527125"/>
<circle r="3.29453" transform="matrix(-1 0 0 1 30.7055 12.5328)" fill="#43B97F"/>
<circle r="3.29453" transform="matrix(-1 0 0 1 297.432 43.6324)" fill="#43B97F"/>
<circle r="8.56578" transform="matrix(-1 0 0 1 226.534 101.617)" stroke="white" stroke-width="0.527125"/>
<circle r="2.76741" transform="matrix(-1 0 0 1 232.069 43.1053)" fill="#4C90F2"/>
<circle r="2.76741" transform="matrix(-1 0 0 1 311.924 96.0819)" fill="#FF6650"/>
<circle r="2.76741" transform="matrix(-1 0 0 1 109.51 46.7967)" fill="#FF6650"/>
<circle r="2.76741" transform="matrix(-1 0 0 1 177.772 66.5633)" fill="#FFB951"/>
<circle r="3.29453" transform="matrix(-1 0 0 1 171.182 10.1598)" fill="#C280D2"/>
</g>
<defs>
<clipPath id="clip0_109_5954">
<rect width="327" height="102" rx="7.56522" transform="matrix(-1 0 0 1 327 0)" fill="white"/>
</clipPath>
</defs>
</svg>
